<?xml version="1.0" standalone="no"?>
<!DOCTYPE svg PUBLIC "-//W3C//DTD SVG 20010904//EN"
 "http://www.w3.org/TR/2001/REC-SVG-20010904/DTD/svg10.dtd">
<svg version="1.0" xmlns="http://www.w3.org/2000/svg"
 width="512.000000pt" height="512.000000pt" viewBox="0 0 512.000000 512.000000"
 preserveAspectRatio="xMidYMid meet">

<g transform="translate(0.000000,512.000000) scale(0.100000,-0.100000)"
fill="#000000" stroke="none">
<path d="M1299 4051 l-29 -29 0 -1461 0 -1460 24 -28 24 -28 392 0 392 0 24
28 24 28 0 373 0 374 78 85 c42 47 82 84 87 83 6 -2 132 -215 280 -475 185
-323 278 -477 295 -487 20 -11 111 -13 463 -14 l439 0 29 29 c33 33 38 75 15
120 -14 25 -880 1457 -912 1506 -12 18 23 68 438 610 248 325 459 604 469 620
34 55 21 113 -31 140 -44 23 -915 22 -948 0 -12 -9 -173 -237 -359 -508 l-338
-491 -5 483 -5 483 -28 24 -28 24 -380 0 -381 0 -29 -29z m291 -74 c0 -1 -49
-52 -110 -112 l-110 -110 0 113 0 112 110 0 c61 0 110 -1 110 -3z"/>
</g>
</svg>
